<?xml version="1.0" standalone="no"?><!DOCTYPE svg PUBLIC "-//W3C//DTD SVG 1.1//EN" "http://www.w3.org/Graphics/SVG/1.1/DTD/svg11.dtd"><svg t="1509791373239" class="icon" style="" viewBox="0 0 1024 1024" version="1.1" xmlns="http://www.w3.org/2000/svg" p-id="998" xmlns:xlink="http://www.w3.org/1999/xlink" width="200" height="200"><defs><style type="text/css"></style></defs><path d="M398.4 232.4c-25.6 0-46.4 20.8-46.4 46.4l0.4 559.2c0 25.6 20.8 46.4 46.4 46.4 25.6 0 46.4-20.8 46.4-46.4l-0.4-559.2C444.8 253.2 424 232.4 398.4 232.4zM630.4 232.4c-25.6 0-46.4 20.8-46.4 46.4l0.4 559.2c0 25.6 20.8 46.4 46.4 46.4 25.6 0 46.4-20.8 46.4-46.4l-0.4-559.2C677.2 253.2 656.4 232.4 630.4 232.4zM954.4 94.4l-370 0-0.4-48C584 20.8 563.2 0 537.6 0c-8.4 0-16.4 2.4-23.2 6.4-6.8-4-14.8-6.4-23.2-6.4-25.6 0-46.4 20.8-46.4 46.4l0.4 48-267.6 0c-3.6-0.8-7.2-1.6-11.2-1.6-4 0-7.6 0.8-11.2 1.6l-85.2 0c-25.6 0-46.4 20.8-46.4 46.4S44 187.6 69.6 187.6l50 0L120 881.2l0 0 0 49.2c0 51.2 41.6 92.8 92.8 92.8l46.4 0 0 0.4 511.2-0.4 0 0 46.4 0c51.2 0 92.8-41.2 92.8-92.4l-0.4-652c0-25.6-20.8-46.4-46.4-46.4-25.6 0-46.4 20.8-46.4 46.4l0.4 565.2c-1.2 72-20.8 85.2-92.8 85.2l48 1.2-527.2 0.4 60.8-1.6c-74.4 0-92.8-14-92.8-92.8l0.8 94.4-0.8 0L212.8 187.6l277.2 0c0.4 0 1.2 0 1.6 0 0.4 0 1.2 0 1.6 0l42.8 0c0.8 0 1.2 0 2 0 0.8 0 1.2 0 2 0l414.4 0c25.6 0 46.4-20.8 46.4-46.4C1000.8 115.2 980 94.4 954.4 94.4zM817.2 854.4l0 76.4-0.4 0L817.2 854.4z" p-id="999"></path></svg>